<svg height="512" viewBox="0 0 512 512" width="512" xmlns="http://www.w3.org/2000/svg"><g id="Flat"><path d="m184 104h8a0 0 0 0 1 0 0v48a0 0 0 0 1 0 0h-8a24 24 0 0 1 -24-24 24 24 0 0 1 24-24z" fill="#f2c194"/><path d="m344 104h8a0 0 0 0 1 0 0v48a0 0 0 0 1 0 0h-8a24 24 0 0 1 -24-24 24 24 0 0 1 24-24z" fill="#f2c194" transform="matrix(-1 0 0 -1 672 256)"/><path d="m401.18018 331.79-41.18018 22.87992-16 8.89014v132.43994h-176v-132.43994l-16-8.89014-41.17993-22.87992a200.37886 200.37886 0 0 1 107.69993-94.95016c.83008-.31982 1.65991-.61987 2.5-.91992l.35986-.12988a16.00751 16.00751 0 0 0 10.62014-15.07004v-12.72h48v12.72a16.00751 16.00751 0 0 0 10.62012 15.07l.35986.12988c.83984.3 1.66992.6001 2.5.91992a200.36542 200.36542 0 0 1 107.7002 94.9502z" fill="#8acce7"/><path d="m286.3999 233.52a45.258 45.258 0 0 1 -60.7998 0 15.97361 15.97361 0 0 0 6.3999-12.8v-12.72h48v12.72a15.97361 15.97361 0 0 0 6.3999 12.8z" fill="#f2c194"/><path d="m320 64v88a63.99994 63.99994 0 0 1 -63.99994 63.99994h-.00012a63.99994 63.99994 0 0 1 -63.99994-63.99994v-88z" fill="#f4ceaf"/><path d="m232 128h-16a8 8 0 0 1 0-16h16a8 8 0 0 1 0 16z" fill="#ad7d4d"/><path d="m296 128h-16a8 8 0 0 1 0-16h16a8 8 0 0 1 0 16z" fill="#ad7d4d"/><circle cx="224" cy="136" fill="#966342" r="8"/><circle cx="288" cy="136" fill="#966342" r="8"/><path d="m256 187.75293a43.80673 43.80673 0 0 1 -19.57812-4.59766 8.00005 8.00005 0 1 1 7.15624-14.31054 27.9117 27.9117 0 0 0 24.84376 0 8.00005 8.00005 0 1 1 7.15624 14.31054 43.80673 43.80673 0 0 1 -19.57812 4.59766z" fill="#f2c194"/><path d="m248.001 160.002a8.00445 8.00445 0 0 1 -7.59082-10.53222l8-24a8.0005 8.0005 0 1 1 15.17968 5.06054l-8 24a8.00486 8.00486 0 0 1 -7.58886 5.47168z" fill="#f2c194"/><path d="m328 70.62988v33.37012h-3.16016a53.90316 53.90316 0 0 1 -44.83984-24 119.90337 119.90337 0 0 1 -34.05 17.83984 119.817 119.817 0 0 1 -37.95 6.16016 40.00032 40.00032 0 1 1 31.96-64.05c.01.02.03.03.04.05h9.37012a54.63342 54.63342 0 0 1 38.62988 16l1.37012-1.37012a22.62742 22.62742 0 0 1 38.62988 16z" fill="#ad7d4d"/><path d="m264 64a8 8 0 0 1 -16 0 40.13945 40.13945 0 0 0 -8.01-24 .21881.21881 0 0 1 -.03-.05c.01.02.03.03.04.05h9.37012a54.53823 54.53823 0 0 1 9.58984.8501 55.96139 55.96139 0 0 1 5.04004 23.1499z" fill="#966342"/><path d="m168 350.62988v12.93018l-16-8.89014v-4.04a38.41227 38.41227 0 0 0 -11.31006-27.31982l11.31006-11.3101a54.27275 54.27275 0 0 1 16 38.62988z" fill="#379ec3"/><path d="m371.31006 323.31006a38.41227 38.41227 0 0 0 -11.31006 27.31982v4.04l-16 8.89014v-12.93014a54.27378 54.27378 0 0 1 16-38.62988z" fill="#379ec3"/><path d="m392 336v160h-48v-132.44z" fill="#f4ceaf"/><path d="m320 248.97v183.03h-128l101.48-195.16016a199.59968 199.59968 0 0 1 26.52 12.13016z" fill="#c4d4e0"/><path d="m128.63158 341.68421-13.608 49.896a32 32 0 0 0 30.87242 40.41979h110.104a16 16 0 0 0 16-16v-16a16 16 0 0 0 -16-16h-88v-20.44444z" fill="#f4ceaf"/><path d="m320 432h-128v-183.03a199.62823 199.62823 0 0 1 26.52-12.13013z" fill="#d3e1e9"/></g></svg>