<?xml version="1.0" encoding="iso-8859-1"?>
<!-- Generator: Adobe Illustrator 19.0.0, SVG Export Plug-In . SVG Version: 6.00 Build 0)  -->
<svg version="1.1" id="Capa_1" xmlns="http://www.w3.org/2000/svg" xmlns:xlink="http://www.w3.org/1999/xlink" x="0px" y="0px"
	 viewBox="0 0 511.994 511.994" style="enable-background:new 0 0 511.994 511.994;" xml:space="preserve">
<circle style="fill:#524FA1;" cx="255.997" cy="235.371" r="235.367"/>
<path style="fill:#28D2F9;" d="M332.325,78.16c-23.866,27.464-62.499,31.633-62.499,31.633v61.605
	c56.839,39.904,60.6-20.331,97.583-5.012c28.422,11.773,48.112-0.079,55.705-6.196c2.439-1.965,5.417-3.098,8.532-3.422
	c16.167-1.679,25.147-11.244,29.584-18.111c1.657-2.565,3.93-4.652,6.577-6.04c-5.846-12.028-12.686-23.481-20.414-34.257
	c-52.601-5.55-82.408-16.748-96.776-23.864C344.386,71.41,336.887,72.91,332.325,78.16z"/>
<g>
	<path style="fill:#14C0EB;" d="M305.215,121.66c0-11.28,4.19-21.575,11.087-29.436c-22.019,14.916-46.477,17.57-46.477,17.57
		v61.605c43.056,30.227,55.657,3.001,75.31-5.327C322.699,163.701,305.215,144.724,305.215,121.66z"/>
	<path style="fill:#14C0EB;" d="M179.675,78.16c-4.562-5.25-12.061-6.75-18.293-3.663c-14.368,7.116-44.174,18.314-96.776,23.864
		c-7.728,10.776-14.568,22.229-20.414,34.257c2.647,1.388,4.92,3.476,6.577,6.04c4.438,6.867,13.417,16.432,29.584,18.111
		c3.115,0.323,6.093,1.456,8.532,3.422c7.593,6.117,27.284,17.969,55.705,6.196c36.982-15.318,40.743,44.916,97.583,5.012v-61.605
		C242.175,109.793,203.542,105.624,179.675,78.16z"/>
</g>
<path style="fill:#DAECF7;" d="M272.173,427.887V50.663c-4.84,2.26-10.237,3.529-15.932,3.529c-5.694,0-11.091-1.27-15.932-3.529
	v377.223c0,27.164,3.702,54.201,11.003,80.366l0,0c1.392,4.989,8.465,4.989,9.857,0l0,0
	C268.471,482.088,272.173,455.051,272.173,427.887z"/>
<path style="fill:#B2D9ED;" d="M255.894,54.183c-5.566-0.051-10.843-1.306-15.585-3.52v377.223c0,27.164,3.702,54.201,11.003,80.366
	l0,0c1.392,4.989,8.465,4.989,9.857,0l0,0c1.029-3.687,1.978-7.393,2.864-11.112C249.961,438.034,258.306,424.161,255.894,54.183z"
	/>
<path style="fill:#FDCF49;" d="M212.881,496.069c-8.903-8.903-9.383-17.803-8.22-23.703c2.058-10.429,11.003-20.753,26.586-30.684
	c9.982-6.362,19.438-10.489,21.055-11.179l33.345-16.17c7.657-3.714,12.024-9.38,11.98-15.547
	c-0.043-6.144-4.672-11.963-12.381-15.569l-65.31-30.544c-14.493-6.779-22.832-19.338-21.763-32.777
	c1.138-14.31,12.314-26.206,29.178-31.068l92.545-29.047c11.346-3.56,17.439-15.908,13.236-27.121
	c-3.22-8.591-12.617-13.219-21.388-10.537l-5.294,1.617c-4.338,1.324-8.93-1.118-10.256-5.456
	c-1.325-4.338,1.117-8.931,5.456-10.256l5.293-1.617c17.053-5.21,35.315,3.786,41.573,20.484c7.47,19.931-3.233,42.135-23.7,48.56
	l-92.639,29.077c-0.066,0.02-0.133,0.041-0.2,0.06c-10.166,2.909-16.844,9.272-17.428,16.606
	c-0.519,6.531,4.096,12.734,12.346,16.592l65.31,30.544c13.592,6.358,21.76,17.697,21.849,30.335
	c0.088,12.571-7.852,23.952-21.24,30.444c-36.351,17.623-33.554,16.284-33.95,16.45c-14.564,6.107-36.014,19.45-38.086,29.988
	c-0.365,1.858-0.378,4.802,3.719,8.899c3.208,3.209,3.208,8.409,0,11.618C221.288,499.277,216.088,499.276,212.881,496.069z"/>
<g>
	<path style="fill:#FDE57F;" d="M287.984,496.069c-3.208-3.209-3.208-8.409,0-11.618c4.096-4.096,4.085-7.041,3.719-8.899
		c-2.072-10.536-23.522-23.88-38.091-29.99c-0.408-0.171,1.794,0.879-33.946-16.448c-13.388-6.492-21.328-17.873-21.24-30.443
		c0.089-12.639,8.257-23.979,21.85-30.336l65.309-30.544c8.25-3.858,12.865-10.061,12.346-16.592
		c-0.583-7.334-7.261-13.697-17.428-16.606c-0.067-0.019-0.134-0.04-0.2-0.06l-92.639-29.076
		c-20.306-6.376-31.228-28.475-23.699-48.561c6.259-16.698,24.522-25.69,41.573-20.484l5.293,1.617
		c4.339,1.325,6.781,5.917,5.456,10.256c-1.326,4.338-5.914,6.78-10.256,5.456l-5.294-1.617
		c-8.773-2.682-18.168,1.948-21.388,10.537c-4.183,11.16,1.832,23.542,13.236,27.122l92.545,29.046
		c16.864,4.862,28.04,16.758,29.178,31.068c1.069,13.439-7.27,25.998-21.763,32.777l-65.309,30.544
		c-7.709,3.606-12.338,9.426-12.381,15.57c-0.043,6.166,4.323,11.833,11.98,15.546l33.334,16.164
		c5.339,2.254,43.129,18.953,47.65,41.868c1.164,5.9,0.683,14.8-8.219,23.703C296.392,499.277,291.192,499.276,287.984,496.069z"/>
	<circle style="fill:#FDE57F;" cx="256.237" cy="37.717" r="37.717"/>
</g>
<path style="fill:#FDCF49;" d="M256.241,37.717c-6.979-12.088-6.497-26.429,0.002-37.713c-6.411-0.007-12.909,1.612-18.861,5.048
	c-18.04,10.415-24.221,33.483-13.806,51.522s33.483,24.221,51.522,13.805c5.952-3.436,10.603-8.254,13.803-13.81
	C275.881,56.557,263.22,49.805,256.241,37.717z"/>
<path style="fill:#029DCC;" d="M108.047,122.66c0-14.977,7.759-28.134,19.469-35.696c-15.848,4.402-36.505,8.611-62.91,11.397
	c-7.728,10.776-14.568,22.229-20.414,34.257c2.647,1.388,4.92,3.476,6.577,6.04c4.438,6.867,13.417,16.432,29.584,18.111
	c3.115,0.323,6.093,1.456,8.532,3.422c7.593,6.117,27.284,17.969,55.705,6.196c1.271-0.526,2.5-0.956,3.696-1.311
	C125.868,163.913,108.047,145.368,108.047,122.66z"/>
<g>
</g>
<g>
</g>
<g>
</g>
<g>
</g>
<g>
</g>
<g>
</g>
<g>
</g>
<g>
</g>
<g>
</g>
<g>
</g>
<g>
</g>
<g>
</g>
<g>
</g>
<g>
</g>
<g>
</g>
</svg>
